<?xml version="1.0" encoding="iso-8859-1"?>
<!-- Generator: Adobe Illustrator 26.0.1, SVG Export Plug-In . SVG Version: 6.00 Build 0)  -->
<svg version="1.1" id="Layer_1" xmlns="http://www.w3.org/2000/svg"
	xmlns:xlink="http://www.w3.org/1999/xlink" x="0px" y="0px"
	viewBox="0 0 1000 1000" xml:space="preserve">

<g style="fill:white">
<path style="fill:#FD6C35;"
	d="M499.631,275.183c85.969-1.343,158.902,69.209,158.65,157.894
			c-0.254,89.432-71.453,158.642-158.921,158.287c-87.927-0.357-157.456-70.643-157.673-157.983
			C341.465,343.7,415.114,274.092,499.631,275.183z M505.039,461.856c-1.448-2.67-4.222-4.382-6.177-6.8
			c-2.38-2.944-5.242-3.488-8.786-2.569c-4.443,1.152-8.948,2.09-13.457,2.956c-3.101,0.596-5.523,2.084-7.728,4.328
			c-8.187,8.334-16.493,16.551-24.754,24.813c-6.126,6.127-12.249,12.256-18.377,18.381c-1.264,1.264-2.512,2.518-0.733,4.296
			c3.993,3.989,7.979,7.986,11.987,11.96c0.556,0.552,1.242,1.102,2.088,0.744c1.077-0.455,1.007-1.504,0.837-2.385
			c-0.446-2.317-0.871-4.656-1.568-6.904c-1.048-3.382,0.151-5.506,3.18-7.045c5.147-2.615,10.274-5.278,15.323-8.076
			c16.211-8.983,31.84-18.852,46.148-30.701C503.921,464.108,504.952,463.439,505.039,461.856z M548.874,374.383
			c-0.32-1.107-1.088-1.392-1.804-1.695c-2.765-1.172-5.577-1.275-8.468-0.432c-4.99,1.455-9.356,4.084-13.573,7.021
			c-15.47,10.773-28.665,24.167-42.255,37.067c-9.409,8.931-9.51,6.638-0.082,16.181c3.421,3.463,3.661,3.437,7.203-0.099
			c12.167-12.15,24.217-24.42,36.518-36.433c7.117-6.95,13.402-14.788,21.614-20.594
			C548.409,375.128,548.65,374.658,548.874,374.383z M559.933,386.34c-0.017-2.859-1.057-5.263-3.821-6.293
			c-3.4-1.267-6.546-0.953-9.365,1.883c-17.844,17.952-35.778,35.814-53.663,53.725c-2.954,2.958-2.807,4.231,0.121,7.132
			c2.782,2.756,4.948,1.663,7.417-0.534c10.377-9.232,20.875-18.327,31.281-27.527c8.247-7.29,16.431-14.652,24.627-21.999
			C558.427,391.027,559.975,389.101,559.933,386.34z M551.291,357.757c-0.083,15.015,13.555,26.663,27.435,23.398
			c1.348-0.317,3.119-0.264,3.562-1.978c0.388-1.498-1.012-2.309-1.9-3.214c-3.125-3.186-6.306-6.317-9.453-9.482
			c-4.042-4.066-4.055-4.571-0.116-8.53c5-5.025,10.042-10.008,15.022-15.052c2.813-2.849,2.668-3.493-0.928-5.346
			C569.809,329.769,551.385,340.84,551.291,357.757z M559.681,398.838c-0.159-0.466-0.174-0.959-0.422-1.15
			c-0.656-0.504-1.228-0.026-1.71,0.402c-1.471,1.306-2.894,2.667-4.374,3.962c-15.696,13.723-31.479,27.346-47.064,41.194
			c-6.887,6.119-6.623,6.239-0.074,12.719c2.528,2.501,4.438,2.544,6.916,0.012c7.803-7.972,15.961-15.607,23.556-23.769
			c8.221-8.834,16.104-18.014,21.39-29.049C558.577,401.747,559.1,400.26,559.681,398.838z M597.693,358.372
			c0.099-4.557-1.119-8.495-3.404-12.144c-1.326-2.117-2.801-2.621-4.718-0.695c-4.808,4.829-9.614,9.66-14.47,14.441
			c-1.557,1.533-1.495,2.832,0.038,4.329c3.376,3.295,6.744,6.602,9.997,10.018c2.445,2.568,4.52,2.056,6.573-0.389
			C595.543,369.365,597.887,364.233,597.693,358.372z M429.517,522.468c0.899,0.129,1.957,0.421,2.527-0.49
			c0.725-1.16-0.26-1.972-0.943-2.716c-1.241-1.352-2.477-2.734-3.877-3.911c-8.469-7.119-5.931-7.774-13.902,0.05
			c-0.842,0.827-1.688,1.652-2.494,2.514c-0.61,0.653-1.619,1.258-1.282,2.267c0.415,1.243,1.714,0.984,2.716,1.058
			C418.012,521.668,423.765,522.062,429.517,522.468z M460.858,442.395c5.466-1.223,11.451-2.533,17.417-3.925
			c1.104-0.258,2.111-1.179,1.273-2.292c-2.115-2.808-4.537-5.382-7.487-7.352c-0.856-0.571-1.809-0.07-2.487,0.598
			c-3.535,3.477-7.044,6.98-10.552,10.485c-0.458,0.458-0.965,0.993-0.721,1.693C458.642,442.578,459.557,442.319,460.858,442.395z"
/>
<path style="fill:#FD6C35;"
	d="M584.941,673.003c-4.54,6.744-7.498,14.372-11.687,21.314c-1.228,2.035-2.233,4.385-5.092,4.305
			c-2.715-0.077-3.51-2.427-4.537-4.389c-3.346-6.396-6.654-12.811-10.039-19.187c-0.496-0.933-0.708-2.662-2.268-2.138
			c-1.136,0.381-0.712,1.845-0.714,2.841c-0.03,13.784-0.017,27.569-0.035,41.353c-0.002,1.821,0.245,3.765-1.249,5.195
			c-1.433,1.372-3.174,1.804-5.098,1.178c-1.778-0.578-2.927-1.771-3.139-3.658c-0.146-1.299-0.14-2.62-0.14-3.931
			c-0.008-19.561-0.015-39.121,0.005-58.682c0.003-3.244-0.614-7.082,3.77-8.002c4.127-0.866,6.654,1.895,8.408,5.166
			c3.97,7.402,7.733,14.914,11.685,22.325c1.023,1.917,1.578,5.123,3.577,5.246c2.305,0.142,2.623-3.189,3.653-5.046
			c3.819-6.884,7.423-13.887,11.146-20.825c0.741-1.38,1.513-2.782,2.506-3.979c1.856-2.239,4.213-3.786,7.236-2.779
			c3.094,1.03,3.216,3.827,3.217,6.525c0.006,20.348,0.011,40.697-0.009,61.045c-0.003,2.969-0.049,5.967-4.114,6.399
			c-4.19,0.446-5.968-1.229-5.991-6.124c-0.062-13.128-0.027-26.256-0.03-39.384c0-1.531,0-3.063,0-4.594
			C585.647,673.119,585.294,673.061,584.941,673.003z" />
<path style="fill:#FD6C35;"
	d="M715.042,674.458c-0.871,1.619-0.553,3.089-0.556,4.501c-0.029,12.87-0.059,25.74,0.006,38.61
			c0.017,3.34-0.955,5.781-4.641,6.02c-2.837,0.184-4.84-0.912-4.999-4.179c-0.638-13.113-0.885-26.214-0.202-39.346
			c0.429-8.248,0.134-16.534,0.182-24.802c0.015-2.499-0.265-5.262,3.007-6.053c3.178-0.768,5.771,0.357,7.337,3.225
			c3.333,6.106,6.589,12.255,9.781,18.435c4.399,8.516,8.709,17.078,13.063,25.617c0.35,0.686,0.555,1.498,1.639,1.897
			c1.245-1.026,0.742-2.54,0.747-3.823c0.043-13.001,0.019-26.003,0.039-39.004c0.003-1.953-0.232-4.064,1.54-5.471
			c1.69-1.341,3.638-1.347,5.6-0.584c1.879,0.731,2.407,2.274,2.407,4.112c0.002,21.669-0.001,43.337,0.008,65.006
			c0.001,2.341-0.798,4.181-3.212,4.799c-2.741,0.701-5.064-0.355-6.492-2.617c-2.097-3.323-3.924-6.825-5.734-10.319
			c-5.678-10.959-11.285-21.954-16.949-32.92C717.034,676.44,716.74,675.043,715.042,674.458z" />
<path style="fill:#FD6C35;"
	d="M367.768,686.998c0,4.728,0.024,9.455-0.004,14.183c-0.108,18.305-14.907,28.09-32.073,21.415
			c-7.966-3.098-11.625-8.97-12.284-17.123c-1.016-12.585-0.283-25.177,0.049-37.758c0.25-9.453,5.613-15.28,15.82-18.057
			c10.832-2.947,23.089,2.133,26.748,11.155c1.452,3.581,1.765,7.379,1.748,11.214C367.751,677.017,367.768,682.007,367.768,686.998
			z M332.998,686.704c0,5.508-0.15,11.021,0.036,16.523c0.265,7.828,4.473,11.912,12.045,12.038
			c7.867,0.131,12.657-3.812,12.891-11.616c0.342-11.399,0.271-22.82,0.002-34.223c-0.109-4.653-2.144-8.569-6.938-10.518
			c-9.392-3.819-17.549,1.16-17.99,11.273C332.805,675.679,333.002,681.196,332.998,686.704z" />
<path style="fill:#FD6C35;"
	d="M629.334,723.883c-3.851,0.131-6.204-2.673-5.05-6.411c6.58-21.32,13.263-42.608,19.879-63.917
			c0.947-3.049,2.929-4.545,6.085-4.557c3.18-0.012,5.213,1.586,6.136,4.554c2.691,8.646,5.315,17.314,7.997,25.963
			c3.847,12.41,7.744,24.805,11.572,37.221c1.23,3.988,0.163,5.958-3.441,6.84c-2.724,0.666-4.674-0.143-5.561-2.903
			c-1.004-3.123-2.001-6.251-2.883-9.41c-0.733-2.626-2.2-3.951-5.068-3.895c-5.905,0.114-11.815,0.09-17.722,0.013
			c-2.79-0.036-4.354,1.104-5.066,3.856c-0.82,3.172-1.943,6.267-2.967,9.385C632.628,722.505,631.544,723.882,629.334,723.883z
			 M650.224,698.692c0,0.018,0,0.037,0,0.055c0.393,0,0.787-0.004,1.18,0c10.753,0.119,8.994-0.107,6.529-8.877
			c-1.951-6.941-4.169-13.807-6.293-20.699c-0.223-0.724-0.359-1.643-1.275-1.83c-0.807-0.165-1.138,0.529-1.328,1.151
			c-2.781,9.153-5.579,18.302-8.278,27.479c-0.545,1.855,0.662,2.671,2.384,2.707C645.503,698.73,647.864,698.692,650.224,698.692z"
/>
<path style="fill:#FD6C35;"
	d="M250.004,686.37c0.001-10.231-0.013-20.462,0.006-30.693c0.011-5.966,0.79-6.72,6.889-6.741
			c5.64-0.02,11.281-0.037,16.92,0.003c11.947,0.086,19.057,6.419,20.813,18.194c0.654,4.384,0.258,8.666-0.658,12.886
			c-1.831,8.428-9.796,14.341-19.567,14.72c-3.275,0.127-6.568,0.201-9.834,0.001c-3.834-0.236-5.082,1.459-4.979,5.127
			c0.176,6.291,0.031,12.59,0.015,18.886c-0.005,1.985-0.68,3.583-2.604,4.464c-1.842,0.843-3.573,0.559-5.244-0.458
			c-1.909-1.162-1.741-3.078-1.747-4.907c-0.019-5.247-0.01-10.493-0.011-15.74C250.002,696.863,250.003,691.617,250.004,686.37z
			 M259.664,672.025c0,3.539,0.023,7.078-0.008,10.617c-0.02,2.211,0.86,3.489,3.224,3.466c4.193-0.041,8.401,0.154,12.576-0.137
			c4.69-0.326,8.295-3.752,9.186-8.413c0.615-3.218,0.853-6.456,0.219-9.755c-1.131-5.877-5.019-9.603-10.989-9.934
			c-3.528-0.195-7.076-0.025-10.614-0.059c-2.456-0.024-3.607,1.16-3.591,3.598C259.689,664.947,259.672,668.486,259.664,672.025z"
/>
<path style="fill:#FD6C35;"
	d="M441.08,702.695c-0.04,12.402-5.608,19.297-17.199,21.537c-8.552,1.653-16.439-0.075-23.417-5.411
			c-0.924-0.707-1.788-1.566-2.462-2.51c-1.728-2.418-1.912-5.065,0.251-7.18c2.367-2.315,4.618-0.863,6.498,1.038
			c4.617,4.67,10.222,6.157,16.573,5.242c4.803-0.692,8.561-2.962,9.724-7.92c1.22-5.205,0.069-9.944-4.199-13.543
			c-1.915-1.615-4.086-2.847-6.439-3.755c-3.062-1.182-6.127-2.363-9.154-3.633c-9.258-3.884-13.741-11.124-12.899-20.74
			c0.771-8.816,5.966-14.206,16.068-16.31c6.552-1.365,13.066-0.842,19.428,1.254c0.989,0.326,1.966,0.777,2.843,1.337
			c2.298,1.466,3.113,3.537,1.976,6.094c-1.173,2.637-3.26,3.276-5.861,2.232c-4.178-1.677-8.427-2.902-13.001-2.699
			c-5.983,0.265-10.046,2.764-11.178,6.975c-1.288,4.791,0.67,8.639,6.025,12.004c2.592,1.629,5.493,2.479,8.327,3.514
			c4.087,1.492,8.146,3.141,11.387,6.111C439.311,690.856,441.589,696.554,441.08,702.695z" />
<path style="fill:#FD6C35;"
	d="M484.9,690.015c-0.006-9.194-0.095-18.389,0.042-27.581c0.05-3.341-1.086-4.853-4.552-4.678
			c-3.406,0.172-6.828,0.004-10.242,0.015c-3.074,0.01-4.728-1.56-4.689-4.563c0.037-2.842,1.721-4.259,4.575-4.258
			c12.871,0.002,25.743,0.005,38.614-0.002c3.053-0.002,4.753,1.508,4.69,4.545c-0.058,2.824-1.702,4.276-4.569,4.275
			c-3.152-0.001-6.313,0.169-9.454-0.012c-3.627-0.21-4.828,1.362-4.806,4.883c0.105,17.336,0.047,34.674,0.041,52.011
			c0,1.313,0.016,2.629-0.064,3.938c-0.2,3.24-1.769,5.249-5.199,5.081c-3.247-0.159-4.443-2.111-4.412-5.284
			C484.965,708.929,484.906,699.471,484.9,690.015z" />

</g>
</svg>